/* XPM */
static char *result[] = {
/* columns rows colors chars-per-pixel */
"32 32 6 1 ",
"  c #3E734E",
". c #7AB055",
"X c #4D9262",
"o c #9BADB7",
"O c #CBDBFC",
"+ c white",
/* pixels */
"++++++++++++++++++++++++++++++++",
"++++++++++++++++++++++o+++++++++",
"+++++++++++++++++++++o+o++++++++",
"++++++++++++++++++++++o+++++++++",
"++++++++++++++++++++++++++++++++",
"++++++++++++++++++++++++++++++++",
"++++++++++++++++++++++++++++++++",
"++++++++++++++++++++++++++++++++",
"++++++O++++++++++++O O++++++++++",
"++++++O+++ +++++++OOX ++++++++++",
"++++++O+O+ O++OOOOOX  ++++++++++",
"++++++O+O X.OO.XXXXX + +++++++++",
"++++++++ ++XXX++X    +  ++++++++",
"++++++++ O+XX++++++++O  ++++++++",
"++++++++ XO++++++++OOX + +++++++",
"O++++++ XX.O++++OOOXX  +  ++++++",
"+O++++ ++XXX+OOO.XXX   ++ +++++O",
"O+++++ O++XX+XXXX    XX+O ++++++",
"++++++ .O++++XXXXXXXX+++O  +++++",
"++++++ X.+++OXX+X++X++++X  +++++",
"++++++ X.O++++++++++++++X+ +++++",
"+++++ + X.OOOOO++++OOOO+ +  ++++",
"+++++ O+ +XXXX.O+++.XXX++O  ++++",
"+++++ XO++    XX++X   ++OX  ++++",
"+++++ XXOO+XXX ++++ ++OOX  +++++",
"++++++ XXXX+++OOOOO+OOXX   +++++",
"+++++++ X  XXXXXXXXXX     ++++++",
"++++++++                 +++++++",
"++++++++++++         +++++++++++",
"+++++++++++++O++++++++++++++++++",
"++++++++++++O+O+++++++++++++++++",
"+++++++++++++O++++++++++++++++++"
};
