/* XPM */
static char *result[] = {
/* columns rows colors chars-per-pixel */
"32 32 6 1 ",
"  c #141B1B",
". c #E46D3A",
"X c #965746",
"o c #9BADB7",
"O c #CBDBFC",
"+ c white",
/* pixels */
"++++++++++++++++++++++++++++++++",
"++++++++++++++++++++++o+++++++++",
"+++++++++++++++++++++o+o++++++++",
"++++++++++++++++++++++o+++++++++",
"++++++++++++++++++++++++++++++++",
"++++++++++++++++++++++++++++++++",
"+++++++++++++++++O++++++++++++++",
"+++++++++++++++++OO+++++++++++++",
"++++++O++++++++++OO++O++++++++++",
"++++++O+++++++   +OoOO++++++++++",
"++++++O+O++++ ... oOOo++++++++++",
"++++++O+O++++ ... +    +++++++++",
"++++++++    + ...   X. +++++++++",
"++++++++ ...  X.. X...++++++++++",
"++++++++ ......XXX...+++++++++++",
"O+++++++ XX....XX...   +++++++++",
"+O+++++++++  XXX...X.. ++++++++O",
"O+++++++ .....X...X... +++++++++",
"++++++++ .... ...XXXXX +++++++++",
"++++++++ XXX ...X... +++++++++++",
"+++++++++++ ...X .... ++++++++++",
"++++++++++o ...X++.... +++++++++",
"+++++++++o+ ..X++++... +++++++++",
"++++++++++o+++++++++++++++++++++",
"+++++++++++++++++++++++++O++++++",
"+++++++++++++++++++++++O+O++++++",
"+++++++++++++++++++++++O+O++++++",
"+++++++++++++++++++++++O++++++++",
"++++++++++++++++++++++++++++++++",
"+++++++++++++O++++++++++++++++++",
"++++++++++++O+O+++++++++++++++++",
"+++++++++++++O++++++++++++++++++"
};
