/* XPM */
static char *result[] = {
/* columns rows colors chars-per-pixel */
"32 32 255 2 ",
"   c black",
".  c #000606",
"X  c #000807",
"o  c #050D0C",
"O  c #050E0D",
"+  c #090E0F",
"@  c #090F10",
"#  c #081010",
"$  c #0D1514",
"%  c #0E1616",
"&  c #111717",
"*  c #131A1A",
"=  c #141B1B",
"-  c #151C1C",
";  c #171E1E",
":  c #1F2828",
">  c #3D4243",
",  c #45494B",
"<  c #45514F",
"1  c #424E51",
"2  c #4A5754",
"3  c #4A5655",
"4  c #4B5655",
"5  c #4B5756",
"6  c #4C5855",
"7  c #4D5855",
"8  c #4D5956",
"9  c #4E5C59",
"0  c #525F5C",
"q  c #5A5D5F",
"w  c #53615E",
"e  c #5A6666",
"r  c #616666",
"t  c #696D6D",
"y  c #6D7171",
"u  c #6E7373",
"i  c #6F7373",
"p  c #7D8081",
"a  c #818484",
"s  c #818585",
"d  c #888F8E",
"f  c #908F93",
"g  c #929094",
"h  c #939696",
"j  c #98969B",
"k  c #989B9A",
"l  c #839FA4",
"z  c #A09FA2",
"x  c #8CA7AC",
"c  c #9EA1A0",
"v  c #9BA5A4",
"b  c #9BB0AB",
"n  c #A4A7A7",
"m  c #A9A4A9",
"M  c #A8ABAB",
"N  c gray67",
"B  c #ADA8AE",
"V  c #A9ACAC",
"C  c #ADAFAF",
"Z  c #B4AFB5",
"A  c #AFB1B0",
"S  c #B1B3B2",
"D  c #B5B0B6",
"F  c #B4B1B6",
"G  c #B7B2B7",
"H  c #B3B4B4",
"J  c #B4B6B6",
"K  c #B5B7B7",
"L  c #B6B2B8",
"P  c #B7B3B9",
"I  c #B8B4BA",
"U  c #BABCBC",
"Y  c #A8C3BB",
"T  c #ADC3BD",
"R  c #A0B1C2",
"E  c #ACCACA",
"W  c #ADCCCD",
"Q  c #B3C7C2",
"!  c #BEC6C4",
"~  c #B7CBC6",
"^  c #B6CEC8",
"/  c #B6CFC8",
"(  c #B0CCCD",
")  c #BBCBC8",
"_  c #B9D0CA",
"`  c #BBD3CE",
"'  c #BDD5CE",
"]  c #B3D0D2",
"[  c #B0D2D7",
"{  c #B4D3D4",
"}  c #B3D5D5",
"|  c #B9D4D1",
" . c #BBD6D3",
".. c #BBD3D5",
"X. c #BBD8D7",
"o. c #B3D4D9",
"O. c #B1D5DB",
"+. c #B5D6DB",
"@. c #B5D6DC",
"#. c #B1DAE2",
"$. c #B4DBE3",
"%. c #B5DBE3",
"&. c #B7DAE2",
"*. c #B6DBE4",
"=. c #B6DCE5",
"-. c #B6DDE6",
";. c #BEDDE0",
":. c #BADDE5",
">. c #B8DDE6",
",. c #BEDEE6",
"<. c #BBDFEA",
"1. c #BFE1E5",
"2. c #BFE2E6",
"3. c #CCCDCD",
"4. c #C7D4D3",
"5. c #C2D6D6",
"6. c #CFD1D1",
"7. c #CAD4D3",
"8. c #CCD9D6",
"9. c #C1DBDB",
"0. c #D0D8D9",
"q. c #D4DAD9",
"w. c #DCDCDF",
"e. c #DDDCDF",
"r. c #C8DEE1",
"t. c #C4DFE8",
"y. c #C9DFE8",
"u. c #DDDFE3",
"i. c #E1DAE0",
"p. c #E0DDE0",
"a. c #E2DCE2",
"s. c #C8E0E8",
"d. c #CAE0E8",
"f. c #CBE0E9",
"g. c #CCE1E9",
"h. c #CDE2EA",
"j. c #CEE2EA",
"k. c #D8E3E0",
"l. c #D1E2EA",
"z. c #D6E3EB",
"x. c #DDE5ED",
"c. c #DEE5ED",
"v. c #DFE6ED",
"b. c #DCE5EE",
"n. c #DDE6EE",
"m. c #DEE7EF",
"M. c #DEE8EE",
"N. c #E0E6E4",
"B. c gray90",
"V. c #E0E4EA",
"C. c #E0E5ED",
"Z. c #E2E5ED",
"A. c #E1E6ED",
"S. c #E3E6EE",
"D. c #E2E7EE",
"F. c #E5E7EE",
"G. c #E7E7EF",
"H. c #EAE4E9",
"J. c #EBE7EB",
"K. c #ECE4EB",
"L. c #E8E7EF",
"P. c #EBECEC",
"I. c #EBECEF",
"U. c #ECEDED",
"Y. c #F0E7EF",
"T. c #E0E7F0",
"R. c #EAE9F1",
"E. c #EDE9F0",
"W. c #F1E8F0",
"Q. c #F1E9F0",
"!. c #F3E8F0",
"~. c #F2E9F0",
"^. c #F1EAF1",
"/. c #F2EAF1",
"(. c #F3EAF1",
"). c #F3EAF2",
"_. c #F3EBF2",
"`. c #F4EAF1",
"'. c #F5EBF1",
"]. c #F5EBF2",
"[. c #F6EBF2",
"{. c #F7EBF2",
"}. c #F3ECF2",
"|. c #F4ECF3",
" X c #F4EDF3",
".X c #F5ECF4",
"XX c #F5EDF4",
"oX c #F6EDF4",
"OX c #F4EEF4",
"+X c #F5EEF4",
"@X c #F5EFF5",
"#X c #F6EFF5",
"$X c #F9ECF3",
"%X c #FAECF3",
"&X c #F9ECF5",
"*X c #F8EFF6",
"=X c #E5F4F7",
"-X c #EAF4F7",
";X c #F0F4F3",
":X c #F5F0F4",
">X c #F5F0F5",
",X c #F6F0F5",
"<X c #F6F1F5",
"1X c #F6F0F6",
"2X c #F6F1F6",
"3X c #F7F2F6",
"4X c #F7F3F6",
"5X c #F7F2F7",
"6X c #F7F3F7",
"7X c #F4F4F4",
"8X c #F4F5F5",
"9X c #F4F7F6",
"0X c #F8F2F6",
"qX c #F8F3F7",
"wX c #F8F4F7",
"eX c #F9F4F7",
"rX c #F5F8F7",
"tX c #FBF1FA",
"yX c #FEF0F9",
"uX c #F8F4F8",
"iX c #F9F4F8",
"pX c #F9F5F8",
"aX c #F9F6F9",
"sX c #FAF6F9",
"dX c #FAF7F9",
"fX c #FAF7FA",
"gX c #FDF6F9",
"hX c #FFF7FF",
"jX c #F6F9F8",
"kX c #FAF8F9",
"lX c #FAF8FA",
"zX c #FBF8FA",
"xX c #FBF9FA",
"cX c #FBF9FB",
"vX c #FDF9FA",
"bX c #FCF9FB",
"nX c #FCFAFB",
"mX c #FDF9FD",
"MX c #FCFAFC",
"NX c #FDFAFC",
"BX c #FFF9FF",
"VX c #FAFCFC",
"CX c #FBFCFC",
"ZX c #FCFDFC",
"AX c #FDFCFD",
"SX c #FEFCFD",
"DX c #FEFDFD",
"FX c #FEFEFD",
"GX c #FEFCFE",
"HX c #FEFDFE",
"JX c #FFFCFF",
"KX c #FFFDFF",
"LX c #FEFEFE",
"PX c #FFFEFE",
"IX c white",
/* pixels */
"IXIXIXIXIXIXIXIXIXIX7XJ H u r r r r u H J 7XIXIXIXIXIXIXIXIXIXIX",
"IXIXIXIXIXIXIXIX6.t i n c U.IXIXIXIXU.c n i 1 6.IXIXIXIXIXIXIXIX",
"IXIXIXIXIXIX3.y a B.8XIXIXmX>X<X<X>XmXIXIX8XB.p y 3.IXIXIXIXIXIX",
"IXIXIXIXIXV s p.IXIXIXfX0XAXIXIXIXIXAX0XfXIXIXIXp.s V IXIXIXIXIX",
"IXIXIXIXM z IXJXIXIXzXpXIXIXIXIXIXIXIXIXpXzXIXIXJXIXz M IXIXIXIX",
"IXIXIXK j IXfXfXIXIXdXdXIXIXIXIXIXIXIXIXdXdXIXIXfXfXIXj K IXIXIX",
"IXLXU g BXNXbXdXIXIXkXdXIXIXIXIXIXIXIXIXdXkXIXIXdXbXNXBXg U LXIX",
"IXIXq KX5XIXDX+XFXIXIX<XlXIXIXIXIXIXIXlX<XIXIXFX+XDXIX5XKXq IXIX",
"IXh v tX2XPXiX#XDXIXcXpXpX<X3X3X3X3X<XpXpXcXIXDX#XiXPX2XtXv h IX",
"P.e 4.&X:XpXGXHXwXzXaXIXIXAXAXAXAXAXAXIXIXaXzXwXHXGXpX:X&X4.e P.",
"A l 9.R.!.xXIXIXAX_.aXIXIXIXIXIXIXIXIXIXIXaX_.AXIXIXxX!.R.9.l A ",
"k x } m.].|.AXIXIXHXzX}.6XnXMXMXMXMXnX6X}.zXHXIXIXAX|.].m.} x k ",
"2  .E T.[.W.2XIXIXIXAXeXMX6XqXqXqXqX6XMXeXAXIXIXIX2XW.[.T.E  .2 ",
"8 X.W v.[./._.@XSXLX4XLXIXIXIXIXIXIXIXIXLX4XLXSX@X_./.[.v.W X.8 ",
"6 2.[ e.oX/./.Q.Q.<X5XIXIXIXIXIXIXIXIXIXIX5X<XQ.Q././.oXe.[ 2.6 ",
"3 1.o.) (.)./././.Q.}.,X,X,X,X,X,X,X,X,X,X}.Q./././.).(.) o.1.6 ",
"7 ;.( *.F.[./././././.Q.W.Y.Y.Y.W.W.Y.W.Q./././././.[.F.*.( ;.4 ",
"5 | +.-.:.L.{.].`././.Q.OXfXfXfX3X3XfXOXQ././.`.].{.L.:.-.+.| 8 ",
"< ^ $.D.C.=.C.A.G.(./.zXLXIXIXIXzXzXIXLXzX/.(.G.A.C.=.C.D.$.^ < ",
"d / %.j.f.s.z.l.x.`.lXIXIXIXIXIXdXdXIXIXIXlX`.x.l.z.s.f.j.%./ d ",
"N.{ ] #.t.].{.{.'. XIXIXIXLXAXAXpXpXLXIXIXIX X'.{.{.].t.#.] { N.",
";X..@.O.h.$X/./.~.vXIXIXsX1X.XXXXXXX1XsXIXIXvX~././.$Xh.O.@...;X",
"IX8.&.>.,.S.^.%XZ.-XIXuXhXK.i.a.a.i.K.hXuXIX-XZ.%X^.S.,.>.&.8.IX",
"IXZX5.<.).d.g.c.y.=XgX*XF , % ; ; % , F *XgX=Xy.c.g.d.).<.5.ZXIX",
"IXIXVXr.V.b.E.n.d.M.BXf . $ = * * = $ . f BXM.d.n.E.b.V.r.VXIXIX",
"IXIXIXCX~ 0.yXH.T u.J.> # = = = = = = # > J.u.T H.yX0.~ CXIXIXIX",
"IXIXIXIXjXk.7.Q Y I.m X - = = = = = = - X m I.Y Q 7.k.jXIXIXIXIX",
"IXIXIXIXIXIX9XrX! G L o = = = = = = = = o L G R rX9XIXIXIXIXIXIX",
"IXIXIXIXIXIXIXIXS D P o = = = = = = = = o P D S IXIXIXIXIXIXIXIX",
"IXIXIXIXIXIXIXIXC P P O & + @ @ @ @ + & O P P C IXIXIXIXIXIXIXIX",
"IXIXIXIXIXIXIXIXN Z I   : w 9 9 9 9 w :   I Z N IXIXIXIXIXIXIXIX",
"IXIXIXIXIXIXIXIXq.w.B 0 b ` _ _ _ _ ' b 0 B w.q.IXIXIXIXIXIXIXIX"
};
