/* XPM */
static char *result[] = {
/* columns rows colors chars-per-pixel */
"32 32 10 1 ",
"  c #141B1B",
". c #2D697B",
"X c #D14B34",
"o c #EF914F",
"O c #548789",
"+ c #79B8CE",
"@ c #9BADB7",
"# c #CBDBFC",
"$ c #E3F1F5",
"% c white",
/* pixels */
"%%%%%%%%%%%%%%%%%%%%%%%%%%%%%%%%",
"%%%%%%%%%%%%%%%%%%%%%%@%%%%%%%%%",
"%%%%%%%%%%%%%%%%%%%%%@%@%%%%%%%%",
"%%%%%%%%%%%%%%%%%%%%%%@%%%%%%%%%",
"%%%%%%%%%%%%%%%%%%%%%%%%%%%%%%%%",
"%%%%%%%%%%%%%%%%%%%%%%%%%%%%%%%%",
"%%%%%%%%%%%%%%%%%#%%%%%%%%%%%%%%",
"%%%%%%%%%%%%%%%%%##%%%%%%%%%%%%%",
"%%%%%%#%%%%%%%%%%##%%#%%%%%%%%%%",
"%%%%%%#%%%%%%%%%%%#@##%%%%%%%%%%",
"%%%%%%#%#%%          @%%%%%%%%%%",
"%%%%%%#%#  +++++++OOO %%%%%%%%%%",
"%%%%%%%% $$++++++++OOO %%%%%%%%%",
"%%%%%%%% $$$+++++++OOO. %%%%%%%%",
"%%%%%%%%  $$$+++++OOOO. %%%%%%%%",
"#%%%%%%%% X$$++++OOOOO. %%%%%%%%",
"%#%%%%%%%  $$OOOOOOOOO. %%%%%%%#",
"#%%%%%%% oo$$OOOOOOOO.. %%%%%%%%",
"%%%%%%%% oo$$OOOOOOOO.. %%%%%%%%",
"%%%%%%%% $$$$OOOOOO... %%%%%%%%%",
"%%%%%%%%% $$......... %%%%%%%%%%",
"%%%%%%%%%%  oo$$$$$$ %%%%%%%%%%%",
"%%%%%%%%%@% oo  OOOOO %%%%%%%%%%",
"%%%%%%%%%%@%  %% .... %%%%%%%%%%",
"%%%%%%%%%%%%%%%%%%%%%%%%%#%%%%%%",
"%%%%%%%%%%%%%%%%%%%%%%%#%#%%%%%%",
"%%%%%%%%%%%%%%%%%%%%%%%#%#%%%%%%",
"%%%%%%%%%%%%%%%%%%%%%%%#%%%%%%%%",
"%%%%%%%%%%%%%%%%%%%%%%%%%%%%%%%%",
"%%%%%%%%%%%%%#%%%%%%%%%%%%%%%%%%",
"%%%%%%%%%%%%#%#%%%%%%%%%%%%%%%%%",
"%%%%%%%%%%%%%#%%%%%%%%%%%%%%%%%%"
};
