/* XPM */
static char *_177342eac65454bfa7a9a2a53cfdebeN7h1LbRDc11WQ7iW[] = {
/* columns rows colors chars-per-pixel */
"32 32 10 1 ",
"  c #141B1B",
". c #2D697B",
"X c #D14B34",
"o c #EF914F",
"O c #548789",
"+ c #79B8CE",
"@ c #9BADB7",
"# c #CBDBFC",
"$ c #E3F1F5",
"% c white",
/* pixels */
"%%%%%%%%%%%%%%%%%%%%%%%%%%%%%%%%",
"%%%%%%%%%%%%%%%%%%%%%%@%%%%%%%%%",
"%%%%%%%%%%%%%%%%%%%%%@%@%%%%%%%%",
"%%%%%%%%%%%%%%%%%%%%%%@%%%%%%%%%",
"%%%%%%%%%%%%%%%%%%%%%%%%%%%%%%%%",
"%%%%%%%%%%%%%%%%%%%%%%%%%%%%%%%%",
"%%%%%%%%%%%%%%%%%#%%%%%%%%%%%%%%",
"%%%%%%%%%%%%%%%%%##%%%%%%%%%%%%%",
"%%%%%%#%%%%%%%%%%##%%#%%%%%%%%%%",
"%%%%%%#%%%%%%%%%%%#@##%%%%%%%%%%",
"%%%%%%#%#%%          @%%%%%%%%%%",
"%%%%%%#%#% OOO+++++++  %%%%%%%%%",
"%%%%%%%%# OOO++++++++$$ %%%%%%%%",
"%%%%%%%% .OOO+++++++$$$ %%%%%%%%",
"%%%%%%%% .OOOO+++++$$$  %%%%%%%%",
"#%%%%%%% .OOOOO++++$$X %%%%%%%%%",
"%#%%%%%% .OOOOOOOOO$$  %%%%%%%%#",
"#%%%%%%% ..OOOOOOOO$$oo %%%%%%%%",
"%%%%%%%% ..OOOOOOOO$$oo %%%%%%%%",
"%%%%%%%%% ...OOOOOO$$$$ %%%%%%%%",
"%%%%%%%%%% .........$$ %%%%%%%%%",
"%%%%%%%%%%@ $$$$$$oo  %%%%%%%%%%",
"%%%%%%%%%@ OOOOO  oo %%%%%%%%%%%",
"%%%%%%%%%% .... %%  %%%%%%%%%%%%",
"%%%%%%%%%%%%%%%%%%%%%%%%%#%%%%%%",
"%%%%%%%%%%%%%%%%%%%%%%%#%#%%%%%%",
"%%%%%%%%%%%%%%%%%%%%%%%#%#%%%%%%",
"%%%%%%%%%%%%%%%%%%%%%%%#%%%%%%%%",
"%%%%%%%%%%%%%%%%%%%%%%%%%%%%%%%%",
"%%%%%%%%%%%%%#%%%%%%%%%%%%%%%%%%",
"%%%%%%%%%%%%#%#%%%%%%%%%%%%%%%%%",
"%%%%%%%%%%%%%#%%%%%%%%%%%%%%%%%%"
};
