/* XPM */
static char *_4fc29e22f634509aaa6a880b3e2dd13i6N1lP0O3gUhc71Y[] = {
/* columns rows colors chars-per-pixel */
"32 32 10 1 ",
"  c #141B1B",
". c #2D697B",
"X c #D14B34",
"o c #EF914F",
"O c #548789",
"+ c #79B8CE",
"@ c #9BADB7",
"# c #CBDBFC",
"$ c #E3F1F5",
"% c white",
/* pixels */
"%%%%%%%%%%%%%%%%%%%%%%%%%%%%%%%%",
"%%%%%%%%%%%%%%%%%%%%%%@%%%%%%%%%",
"%%%%%%%%%%%%%%%%%%%%%@%@%%%%%%%%",
"%%%%%%%%%%%%%%%%%%%%%%@%%%%%%%%%",
"%%%%%%%%%%%%%%%%%%%%%%%%%%%%%%%%",
"%%%%%%%%%%%%%%%%%%%%%%%%%%%%%%%%",
"%%%%%%%%%%%%%%%%%#%%%%%%%%%%%%%%",
"%%%%%%%%%%%%%%%%%##%%%%%%%%%%%%%",
"%%%%%%#%%%%%%%%%%##%%#%%%%%%%%%%",
"%%%%%%#%%%%          #%%%%%%%%%%",
"%%%%%%#%#% OOOOOOOOOO %%%%%%%%%%",
"%%%%%%#%# OOO++++++OOO %%%%%%%%%",
"%%%%%%%% .OO++++++++OO. %%%%%%%%",
"%%%%%%%% .O$$$$$$$$$$O. %%%%%%%%",
"%%%%%%%% .$$$$$$$$$$$$. %%%%%%%%",
"#%%%%%%% .$$$XXXXXX$$$. %%%%%%%%",
"%#%%%%%% .$$X  XX  X$$. %%%%%%%#",
"#%%%%%%% .$$XooooooX$$. %%%%%%%%",
"%%%%%%%%% $$$oooooo$$$  %%%%%%%%",
"%%%%%%%%% ..$$$$$$$$$XX %%%%%%%%",
"%%%%%%%%% ....$..$..   %%%%%%%%%",
"%%%%%%%%%%  oo$$$$$$ %%%%%%%%%%%",
"%%%%%%%%%@% oo   OO %%%%%%%%%%%%",
"%%%%%%%%%%@%%%%%%%%%%%%%%%%%%%%%",
"%%%%%%%%%%%%%%%%%%%%%%%%%#%%%%%%",
"%%%%%%%%%%%%%%%%%%%%%%%#%#%%%%%%",
"%%%%%%%%%%%%%%%%%%%%%%%#%#%%%%%%",
"%%%%%%%%%%%%%%%%%%%%%%%#%%%%%%%%",
"%%%%%%%%%%%%%%%%%%%%%%%%%%%%%%%%",
"%%%%%%%%%%%%%#%%%%%%%%%%%%%%%%%%",
"%%%%%%%%%%%%#%#%%%%%%%%%%%%%%%%%",
"%%%%%%%%%%%%%#%%%%%%%%%%%%%%%%%%"
};
