/* XPM */
static char *b65150265a2d4b9682342c562eb61a8akB5b6RTkP2VVtFYE[] = {
/* columns rows colors chars-per-pixel */
"32 32 9 1 ",
"  c #141B1B",
". c #2D697B",
"X c #D14B34",
"o c #548789",
"O c #79B8CE",
"+ c #9BADB7",
"@ c #CBDBFC",
"# c #E3F1F5",
"$ c white",
/* pixels */
"$$$$$$$$$$$$$$$$$$$$$$$$$$$$$$$$",
"$$$$$$$$$$$$$$$$$$$$$$+$$$$$$$$$",
"$$$$$$$$$$$$$$$$$$$$$+$+$$$$$$$$",
"$$$$$$$$$$$$$$$$$$$$$$+$$$$$$$$$",
"$$$$$$$$$$$$$$$$$$$$$$$$$$$$$$$$",
"$$$$$$$$$$$$$$$$$$$$$$$$$$$$$$$$",
"$$$$$$$$$$$$$$$$$@$$$$$$$$$$$$$$",
"$$$$$$$$$$$$$$$$$@@$$$$$$$$$$$$$",
"$$$$$$@$$$$          @$$$$$$$$$$",
"$$$$$$@$$$ oOOOOOOOOo $$$$$$$$$$",
"$$$$$$@$@ oOOOOOOOOOOo $$$$$$$$$",
"$$$$$$@$ .OOOOOOOOOOOO. $$$$$$$$",
"$$$$$$$$ .oOOOOOOOOOOo. $$$$$$$$",
"$$$$$$$$ ..oOOOOOOOOo.. $$$$$$$$",
"$$$$$$$$ ...oooooooo... $$$$$$$$",
"@$$$$$$$ .............. $$$$$$$$",
"$@$$$$$$ .............. $$$$$$$@",
"@$$$$$$$$ ............ $$$$$$$$$",
"$$$$$$$$$$  ........  $$$$$$$$$$",
"$$$$$$$$$ ...oooooo... $$$$$$$$$",
"$$$$$$$$$ XX########XX $$$$$$$$$",
"$$$$$$$$$ XXooo..oo.XX $$$$$$$$$",
"$$$$$$$$$+  ...  ...  $$$$$$$$$$",
"$$$$$$$$$$+$$$$$$$$$$$$$$$$$$$$$",
"$$$$$$$$$$$$$$$$$$$$$$$$$@$$$$$$",
"$$$$$$$$$$$$$$$$$$$$$$$@$@$$$$$$",
"$$$$$$$$$$$$$$$$$$$$$$$@$@$$$$$$",
"$$$$$$$$$$$$$$$$$$$$$$$@$$$$$$$$",
"$$$$$$$$$$$$$$$$$$$$$$$$$$$$$$$$",
"$$$$$$$$$$$$$@$$$$$$$$$$$$$$$$$$",
"$$$$$$$$$$$$@$@$$$$$$$$$$$$$$$$$",
"$$$$$$$$$$$$$@$$$$$$$$$$$$$$$$$$"
};
