/* XPM */
static char *b6326b8eebf44d6c90322c9d08552051ROdoH1ZZLW7fmelT[] = {
/* columns rows colors chars-per-pixel */
"32 32 10 1 ",
"  c #141B1B",
". c #2D697B",
"X c #D14B34",
"o c #EF914F",
"O c #548789",
"+ c #79B8CE",
"@ c #9BADB7",
"# c #CBDBFC",
"$ c #E3F1F5",
"% c white",
/* pixels */
"%%%%%%%%%%%%%%%%%%%%%%%%%%%%%%%%",
"%%%%%%%%%%%%%%%%%%%%%%@%%%%%%%%%",
"%%%%%%%%%%%%%%%%%%%%%@%@%%%%%%%%",
"%%%%%%%%%%%%%%%%%%%%%%@%%%%%%%%%",
"%%%%%%%%%%%%%%%%%%%%%%%%%%%%%%%%",
"%%%%%%%%%%%%%%%%%%%%%%%%%%%%%%%%",
"%%%%%%%%%%%%%%%%%#%%%%%%%%%%%%%%",
"%%%%%%%%%%%          %%%%%%%%%%%",
"%%%%%%#%%% O++++++++O %%%%%%%%%%",
"%%%%%%#%% O++++++++++O %%%%%%%%%",
"%%%%%%#% .++++++++++++. %%%%%%%%",
"%%%%%%#% .O++++++++++O. %%%%%%%%",
"%%%%%%%% ..O++++++++O.. %%%%%%%%",
"%%%%%%%% ...OOOOOOOO... %%%%%%%%",
"%%%%%%%% .............. %%%%%%%%",
"#%%%%%%% .............. %%%%%%%%",
"%#%%%%%%% ............ %%%%%%%%#",
"#%%%%%%%%%  ........   %%%%%%%%%",
"%%%%%%%%%% ..OOOOOO.XX %%%%%%%%%",
"%%%%%%%%%% oo$$$$$$$  %%%%%%%%%%",
"%%%%%%%%%% oo  ..OO. %%%%%%%%%%%",
"%%%%%%%%%%@  %%  ... %%%%%%%%%%%",
"%%%%%%%%%@%@%%%% .. %%%%%%%%%%%%",
"%%%%%%%%%%@%%%%%%%%%%%%%%%%%%%%%",
"%%%%%%%%%%%%%%%%%%%%%%%%%#%%%%%%",
"%%%%%%%%%%%%%%%%%%%%%%%#%#%%%%%%",
"%%%%%%%%%%%%%%%%%%%%%%%#%#%%%%%%",
"%%%%%%%%%%%%%%%%%%%%%%%#%%%%%%%%",
"%%%%%%%%%%%%%%%%%%%%%%%%%%%%%%%%",
"%%%%%%%%%%%%%#%%%%%%%%%%%%%%%%%%",
"%%%%%%%%%%%%#%#%%%%%%%%%%%%%%%%%",
"%%%%%%%%%%%%%#%%%%%%%%%%%%%%%%%%"
};
