/* XPM */
static char *result[] = {
/* columns rows colors chars-per-pixel */
"16 16 3 1 ",
"  c #D2C9C9",
". c #F2EAF1",
"X c white",
/* pixels */
"................",
"...  ...........",
"..  ............",
".. ..... .......",
".  ...  ...   ..",
" X .. ....  .. .",
"XXX  ....  .....",
"XXXX ...     ...",
"XXXX ..  .... ..",
"XXXX .  ........",
"XXXXX  .........",
"XXXXXX ..  .....",
"XXXXXX .  ......",
"XXXXXXX  .......",
"XXXXXXXX     ...",
"XXXXXXXXXX  ...."
};
