/* XPM */
static char *result[] = {
/* columns rows colors chars-per-pixel */
"32 32 12 1 ",
"  c #292829",
". c #444244",
"X c #73696A",
"o c #7B7D7B",
"O c #9BADB7",
"+ c #AAA8A8",
"@ c #B0AEAE",
"# c #BBBBBB",
"$ c #D0D0D0",
"% c #CBDBFC",
"& c gray96",
"* c white",
/* pixels */
"********************************",
"***************+******O**X******",
"**..**********+*+****O*OX*.*****",
"**.*.********+**+*****O*X*.*****",
"**.**.******+****+******X**.****",
"**.***.****+*****&+****X***.****",
"**.***$.**+&&****&+****X***.****",
"**.$$$$X.+&&&****&+***X****$.***",
"***.@@XX.X&&&&&&&&+**%X***$$.***",
"***$$$..X##&&&&&&&+O%X$*XX$@.***",
"***$&&$$$$####&&&&X%% $@*X$@ ***",
"****$&****$$###&##XO $@**X@@X **",
"****$&******$#####X* @***X@@X **",
"****$&*******$###oX*@****X@XX **",
"****$*******&$$##oX*X$$*$X   ***",
"%****$******&&$#ooXX@$$$X*******",
"*%***$******&&&$ooX.@$@$X******%",
"%****$******&&&&$oX@@@@@.*******",
"*****$*******&&&$$ @@@@.****X***",
"******$******&&&&$$@@@@.****X***",
"*XXX**$******&&&&$$$@@@.***X$ **",
"*X**XXX$*****&&&&$$$@@.****X* **",
"**X****@$****&&&&$$$$@.***X** **",
"**X**@@@@$***&&&&$$$$o****X**$ *",
"***X**@@@o$**&&&&$$$$o **X***$ *",
"****X*@@@oo$*&&&$$$$$o %*X**$@ *",
"*****   oooo$$&$$$$$o *%X$$$$@o ",
"********   oo$$$$$$oo * X$$@@@o ",
"***********   oooooo **  ooooo *",
"*************%*o    *****     **",
"************%*%*****************",
"*************%******************"
};
