/* XPM */
static char *result[] = {
/* columns rows colors chars-per-pixel */
"32 32 221 2 ",
"   c #333233",
".  c #3B3839",
"X  c gray24",
"o  c #434142",
"O  c #454041",
"+  c #444344",
"@  c #484748",
"#  c #484848",
"$  c #4F4C4D",
"%  c #515051",
"&  c gray32",
"*  c #535253",
"=  c #565556",
"-  c #595455",
";  c #5A595A",
":  c #5B5A5B",
">  c #5C5D5C",
",  c #5F5D5F",
"<  c #606060",
"1  c gray39",
"2  c #676667",
"3  c #686162",
"4  c #6D6465",
"5  c #666866",
"6  c #686668",
"7  c #6C6C6C",
"8  c #6F7376",
"9  c #737273",
"0  c #767576",
"q  c #787072",
"w  c #7B7374",
"e  c #7C7576",
"r  c #7E7677",
"t  c #7F7677",
"y  c #797877",
"u  c #7B7778",
"i  c #7C7678",
"p  c #797879",
"a  c #7A7879",
"s  c #7A787A",
"d  c #7B7B7B",
"f  c #7B7D7B",
"g  c #7C7A7C",
"h  c #827A7B",
"j  c #847C7D",
"k  c #867F7F",
"l  c #817F80",
"z  c #838181",
"x  c #848383",
"c  c #838483",
"v  c #838583",
"b  c #848384",
"n  c #858384",
"m  c #858385",
"M  c #868485",
"N  c #858785",
"B  c #868786",
"V  c #878687",
"C  c #8A8383",
"Z  c #8D8586",
"A  c #888788",
"S  c #898988",
"D  c #8A898A",
"F  c #8C8A8A",
"G  c #8D8B8A",
"H  c #8B8D8B",
"J  c #8C8B8C",
"K  c #8D8C8D",
"L  c #8E8C8C",
"P  c #908889",
"I  c #918B8C",
"U  c #938D8E",
"Y  c #948D8E",
"T  c #968E8F",
"R  c #8A8B99",
"E  c #8F8D98",
"W  c #85949C",
"Q  c #969091",
"!  c #949394",
"~  c #959594",
"^  c #959795",
"/  c #999797",
"(  c #9C9596",
")  c #95929B",
"_  c #9C9A9A",
"`  c #9C9B9B",
"'  c #9B9C9B",
"]  c #9D9C9C",
"[  c gray62",
"{  c #9E9F9E",
"}  c #A19D9D",
"|  c #A59E9F",
" . c #9FA09F",
".. c #8992A4",
"X. c #9A9EA2",
"o. c #9BADB7",
"O. c #A1A0A1",
"+. c #A5A6A5",
"@. c #A6A5A6",
"#. c #A8A1A1",
"$. c #A9A6A6",
"%. c #A9A8A8",
"&. c #ADA8A9",
"*. c #AEAEAE",
"=. c #AFAEAF",
"-. c #B0ABAB",
";. c #B0AEAE",
":. c gray70",
">. c #B4B2B2",
",. c #B4B2B3",
"<. c #B5B3B3",
"1. c #B4B3B4",
"2. c gray71",
"3. c #B7B7B7",
"4. c #B9B4B4",
"5. c #B8B6B6",
"6. c #B9B6B6",
"7. c gray72",
"8. c #B9B8B9",
"9. c #BAB8B8",
"0. c #BAB9B9",
"q. c #BBBBBB",
"w. c #BCBBBB",
"e. c #BCBCBC",
"r. c #BDBCBD",
"t. c gray74",
"y. c #BEBDBD",
"u. c #BFBDBD",
"i. c gray",
"p. c gray75",
"a. c #C1BDBD",
"s. c #C0BFBF",
"d. c #C1BFBF",
"f. c #B6BBC8",
"g. c #C1C1C1",
"h. c #C2C1C1",
"j. c #C2C1C2",
"k. c #C3C3C3",
"l. c #C4C2C2",
"z. c #C4C3C3",
"x. c #C6C3C3",
"c. c gray77",
"v. c #C5C4C5",
"b. c #C5C6C5",
"n. c #C6C6C6",
"m. c #C7C6C6",
"M. c #C8C6C6",
"N. c #C8C7C7",
"B. c #CAC7C7",
"V. c #CBC7C7",
"C. c gray79",
"Z. c #CAC9C9",
"A. c gray80",
"S. c #CDCCCC",
"D. c #CCCDCF",
"F. c #CECECE",
"G. c #D0CFD0",
"H. c #D1CFD1",
"J. c #D0D0D0",
"K. c #D1D0D0",
"L. c #D3D0D0",
"P. c #D3D1D1",
"I. c #D2D2D2",
"U. c LightGray",
"Y. c #D4D3D3",
"T. c gray83",
"R. c #D5D5D5",
"E. c gray84",
"W. c #D7D7D7",
"Q. c #D9D8D8",
"!. c gray85",
"~. c #DADADA",
"^. c gray86",
"/. c #DCD9DA",
"(. c #DCDADA",
"). c gainsboro",
"_. c #DDDCDD",
"`. c #DDDDDD",
"'. c gray87",
"]. c #DFDEDE",
"[. c #DEDFDE",
"{. c #DFDFDF",
"}. c #C6D4F2",
"|. c #CBDBFC",
" X c gray88",
".X c #E1E1E1",
"XX c #E2E2E2",
"oX c #E5E3E3",
"OX c #E4E4E4",
"+X c #E5E4E5",
"@X c #E7E7E7",
"#X c #E8E7E8",
"$X c gray91",
"%X c #EAE9E9",
"&X c #EAEAEA",
"*X c #EBEAEA",
"=X c gray92",
"-X c #ECECEC",
";X c #EDECEC",
":X c gray93",
">X c #EEECEC",
",X c #EEECED",
"<X c #EEEEEE",
"1X c #EFEEEE",
"2X c #EFEFEF",
"3X c gray94",
"4X c #F1F1F1",
"5X c gray95",
"6X c #F3F3F3",
"7X c #F4F4F4",
"8X c #F5F4F4",
"9X c gray96",
"0X c #F7F5F6",
"qX c #F6F6F6",
"wX c gray97",
"eX c #F9F9F9",
"rX c gray98",
"tX c #FBFBFB",
"yX c gray99",
"uX c #FEFEFE",
"iX c white",
/* pixels */
"iXiXiXiXiXiXiXiXiXiXiXiXiXiXiXiXiXiXiXiXiXiXiXiXiXiXiXiXiXiXiXiX",
"iXiXiXiXiXiXiXiXiXiXiXiXiXiXiXiXiXiXiXiXiXiXo.iXiXiXiXiXiXiXiXiX",
"iXiXiXiXiXiXiXiXiXiXiXiXiXiXiX8XiXiXiXiXiXo.iXo.0XiXiXiXiXiXiXiX",
"iXiXiX7XH.$XiXiXiXiXiXiXiXiX2Xu.%XiXiXiXiXiXo.B.| _.iXiXiXiXiXiX",
"iXiXiXG.: O.$XiXiXiXiXiXiX%XY.rX<.iXiXiXiXiXiXj G.D iXiXiXiXiXiX",
"iXiXiXG.D J.O.#XiXiXiXiX%XY.8XiXY.{.iXiXiXiXiXj $XO.J.iXiXiXiXiX",
"iXiXiXG.D iXG.D 6XiXiX%XY.8XiXiXeXD.{.iXiXiX-.L.iX7.O.iXiXiXiXiX",
"iXiXiXG.D iXiXj.m iX1Xm.:XyXiXiXuXXXf.iXiXiXj iXiX7.O.iXiXiXiXiX",
"iXiXiXG.g E.E.U.q 6 M.3X9XtXiXiXuXXXf.iXiXE (.iXiX+XK v.iXiXiXiX",
"iXiXiXiXg.n >.e 4 $ Y 4X9X9X9X9X9XXXf.o.}.) >X>X*XF.A 8.iXiXiXiX",
"iXiXiXiX:XR.!.b 2 U p.F.@X@X4X9X9X].X.|.R ,.&XT C c.0 2.iXiXiXiX",
"iXiXiXiX6XOX3X$X.X.X!.k.p.q.T.4X{.x.#.W 8 @.Z.;Xk w.u z 5XiXiXiX",
"iXiXiXiXiX@X@XyXiXiXeX@XE.p.q.T.q.$.#.! V K.rX;Xh ;.I O C.iXiXiX",
"iXiXiXiXiX@X@XyXiXiXiXiXqXE.i.q.3.G #.y.w.9XiX;Xh } r O C.iXiXiX",
"iXiXiXiXiX@X-XuXiXiXiXiXtX'.A.t.:.y #.a.6.).eXS.3 o . F 5XiXiXiX",
"|.iXiXiXiXyX.XqXiXiXiXiXrX6XW.t.c y w Q s.J.E.P >XOXOX5XiXiXiXiX",
"iX|.iXiXiXiX.X6XiXiXiXiXrX9X9X!.N y 3 l h.5.N.r iXiXiXiXiXiXiX|.",
"|.iXiXiXiXiX.X6XiXiXiXiXtXwX9X9Xb.x i ;.;.;._ D iXiX,X,XiXiXiXiX",
"iXiXiXiXiXiX:X@XyXiXiXiXiXeX9X9X^.q.M ;.;.;.% iXiXiX4.V.iXiXiXiX",
"iXiXqX4.4./.iX).eXiXiXiXiXeX9X9X3XJ.Z.5.;.;.% iXiXoX&./ OXiXiXiX",
"iXiX;XZ B.4.#.( Q.iXiXiXiXeX9X9X3XJ.J.s.;.a 1.iXiXB.-.9 C.iXiXiX",
"iXiXqXB.4.;X(.(.h.{.iXiXiXeX9X9X3XJ.J.A.0., #XiXoX#.;Xp C.iXiXiX",
"iXiXiX(.#.iXP.9.;.5..XiXiXeX9X9X3XJ.J.J.{ E.iXiX(.#.iXW.= OXiXiX",
"iXiXiXiXP.4.0Xl.;.%.H ~.yXeX9X9X=XJ.J.J.' X OX;XT iXyX`.* OXiXiX",
"iXiXiXiXiXV.d.] L ` f ^ W.<X6X:XJ.J.J.n.B < 5XB.| 6XXXw.; g.iXiX",
"iXiXiXiXiXiX=.s s > > 5 ^ n. XI.J.J.b.^ @ C.r.t J.A.z.5.S   iXiX",
"iXiXiXiXiXiXiXiXiX! ! d & 7 ' +.+.+.^ 5 d OX+ - +. .~ ~ 1 J iXiX",
"iXiXiXiXiXiXiXiXiXiXiXOX*.*.c.v # # # d OXiXe...# # # # [ 5XiXiX",
"iXiXiXiXiXiXiXiXiXiXiXiXiXiXiX[.C.C.C.OXiXiXiX5XC.C.C.C.5XiXiXiX",
"iXiXiXiXiXiXiXiXiXiXiXiXiX|.iXiXiXiXiXiXiXiXiXiXiXiXiXiXiXiXiXiX",
"iXiXiXiXiXiXiXiXiXiXiXiX|.iX|.iXiXiXiXiXiXiXiXiXiXiXiXiXiXiXiXiX",
"iXiXiXiXiXiXiXiXiXiXiXiXiX|.iXiXiXiXiXiXiXiXiXiXiXiXiXiXiXiXiXiX"
};
